# xmcd CD database file
#
# Track frame offsets:
#	150
#	13000
#	26395
#	40430
#	60895
#	73838
#	85160
#	101090
#	113615
#	125630
#	138690
#	151760
#	166133
#	178553
#	191895
#
# Disc length: 2763 seconds
#
# Revision: 1
# Processed by: cddbd v1.5.1PL2 Copyright (c) Steve Scherf et al.
# Submitted via: CDex 1.51
#
DISCID=c50ac90f
DTITLE=Jerry Lee Lewis - Honky Tonkin Rock'n' Roll Piano Man
DYEAR=1900
DGENRE=Country
TTITLE0=Let My Fingers Do the Walkin
TTITLE1=Why you been gone so long
TTITLE2=Daughters of Dixie
TTITLE3=Teenage Queen
TTITLE4=I'm Lookin' Over a Four Leaf Clover
TTITLE5=I am what I am
TTITLE6=Better Not Look Down
TTITLE7=Only You
TTITLE8=Honky Tonk Rock'n' Roll Piano Man
TTITLE9=Circumstacial Evidence
TTITLE10=I'm Looking Under A Skirt
TTITLE11=Rock 'N' Roll Money
TTITLE12=Forever Forgiving
TTITLE13=Why you been gone so long 
TTITLE14=Get Out Your Big Roll Daddy
EXTD=
EXTT0=
EXTT1=
EXTT2=
EXTT3=
EXTT4=
EXTT5=
EXTT6=
EXTT7=
EXTT8=
EXTT9=
EXTT10=
EXTT11=
EXTT12=
EXTT13=
EXTT14=
PLAYORDER=
